<?xml version="1.0" encoding="utf-8" standalone="no"?>
<!DOCTYPE svg PUBLIC "-//W3C//DTD SVG 1.1//EN"
  "http://www.w3.org/Graphics/SVG/1.1/DTD/svg11.dtd">
<svg xmlns:xlink="http://www.w3.org/1999/xlink" width="568.357813pt" height="352.474375pt" viewBox="0 0 568.357813 352.474375" xmlns="http://www.w3.org/2000/svg" version="1.1">
 <metadata>
  <rdf:RDF xmlns:dc="http://purl.org/dc/elements/1.1/" xmlns:cc="http://creativecommons.org/ns#" xmlns:rdf="http://www.w3.org/1999/02/22-rdf-syntax-ns#">
   <cc:Work>
    <dc:type rdf:resource="http://purl.org/dc/dcmitype/StillImage"/>
    <dc:format>image/svg+xml</dc:format>
    <dc:creator>
     <cc:Agent>
      <dc:title>Matplotlib v3.7.0, https://matplotlib.org/</dc:title>
     </cc:Agent>
    </dc:creator>
   </cc:Work>
  </rdf:RDF>
 </metadata>
 <defs>
  <style type="text/css">*{stroke-linejoin: round; stroke-linecap: butt}</style>
 </defs>
 <g id="figure_1">
  <g id="patch_1">
   <path d="M 0 352.474375 
L 568.357813 352.474375 
L 568.357813 0 
L 0 0 
z
" style="fill: #ffffff"/>
  </g>
  <g id="axes_1">
   <g id="patch_2">
    <path d="M 43.78125 314.918125 
L 553.20625 314.918125 
L 553.20625 22.318125 
L 43.78125 22.318125 
z
" style="fill: #ffffff"/>
   </g>
   <g id="matplotlib.axis_1">
    <g id="xtick_1">
     <g id="line2d_1">
      <path d="M 43.78125 314.918125 
L 43.78125 22.318125 
" clip-path="url(#p98e10accf8)" style="fill: none; stroke: #b0b0b0; stroke-opacity: 0.2; stroke-width: 0.8; stroke-linecap: square"/>
     </g>
     <g id="line2d_2">
      <defs>
       <path id="mcb91f6e1fe" d="M 0 0 
L 0 3.5 
" style="stroke: #000000; stroke-width: 0.8"/>
      </defs>
      <g>
       <use xlink:href="#mcb91f6e1fe" x="43.78125" y="314.918125" style="stroke: #000000; stroke-width: 0.8"/>
      </g>
     </g>
     <g id="text_1">
      <!-- 0.0 -->
      <g transform="translate(35.829688 329.516563) scale(0.1 -0.1)">
       <defs>
        <path id="DejaVuSans-30" d="M 2034 4250 
Q 1547 4250 1301 3770 
Q 1056 3291 1056 2328 
Q 1056 1369 1301 889 
Q 1547 409 2034 409 
Q 2525 409 2770 889 
Q 3016 1369 3016 2328 
Q 3016 3291 2770 3770 
Q 2525 4250 2034 4250 
z
M 2034 4750 
Q 2819 4750 3233 4129 
Q 3647 3509 3647 2328 
Q 3647 1150 3233 529 
Q 2819 -91 2034 -91 
Q 1250 -91 836 529 
Q 422 1150 422 2328 
Q 422 3509 836 4129 
Q 1250 4750 2034 4750 
z
" transform="scale(0.015625)"/>
        <path id="DejaVuSans-2e" d="M 684 794 
L 1344 794 
L 1344 0 
L 684 0 
L 684 794 
z
" transform="scale(0.015625)"/>
       </defs>
       <use xlink:href="#DejaVuSans-30"/>
       <use xlink:href="#DejaVuSans-2e" x="63.623047"/>
       <use xlink:href="#DejaVuSans-30" x="95.410156"/>
      </g>
     </g>
    </g>
    <g id="xtick_2">
     <g id="line2d_3">
      <path d="M 145.66625 314.918125 
L 145.66625 22.318125 
" clip-path="url(#p98e10accf8)" style="fill: none; stroke: #b0b0b0; stroke-opacity: 0.2; stroke-width: 0.8; stroke-linecap: square"/>
     </g>
     <g id="line2d_4">
      <g>
       <use xlink:href="#mcb91f6e1fe" x="145.66625" y="314.918125" style="stroke: #000000; stroke-width: 0.8"/>
      </g>
     </g>
     <g id="text_2">
      <!-- 0.2 -->
      <g transform="translate(137.714687 329.516563) scale(0.1 -0.1)">
       <defs>
        <path id="DejaVuSans-32" d="M 1228 531 
L 3431 531 
L 3431 0 
L 469 0 
L 469 531 
Q 828 903 1448 1529 
Q 2069 2156 2228 2338 
Q 2531 2678 2651 2914 
Q 2772 3150 2772 3378 
Q 2772 3750 2511 3984 
Q 2250 4219 1831 4219 
Q 1534 4219 1204 4116 
Q 875 4013 500 3803 
L 500 4441 
Q 881 4594 1212 4672 
Q 1544 4750 1819 4750 
Q 2544 4750 2975 4387 
Q 3406 4025 3406 3419 
Q 3406 3131 3298 2873 
Q 3191 2616 2906 2266 
Q 2828 2175 2409 1742 
Q 1991 1309 1228 531 
z
" transform="scale(0.015625)"/>
       </defs>
       <use xlink:href="#DejaVuSans-30"/>
       <use xlink:href="#DejaVuSans-2e" x="63.623047"/>
       <use xlink:href="#DejaVuSans-32" x="95.410156"/>
      </g>
     </g>
    </g>
    <g id="xtick_3">
     <g id="line2d_5">
      <path d="M 247.55125 314.918125 
L 247.55125 22.318125 
" clip-path="url(#p98e10accf8)" style="fill: none; stroke: #b0b0b0; stroke-opacity: 0.2; stroke-width: 0.8; stroke-linecap: square"/>
     </g>
     <g id="line2d_6">
      <g>
       <use xlink:href="#mcb91f6e1fe" x="247.55125" y="314.918125" style="stroke: #000000; stroke-width: 0.8"/>
      </g>
     </g>
     <g id="text_3">
      <!-- 0.4 -->
      <g transform="translate(239.599687 329.516563) scale(0.1 -0.1)">
       <defs>
        <path id="DejaVuSans-34" d="M 2419 4116 
L 825 1625 
L 2419 1625 
L 2419 4116 
z
M 2253 4666 
L 3047 4666 
L 3047 1625 
L 3713 1625 
L 3713 1100 
L 3047 1100 
L 3047 0 
L 2419 0 
L 2419 1100 
L 313 1100 
L 313 1709 
L 2253 4666 
z
" transform="scale(0.015625)"/>
       </defs>
       <use xlink:href="#DejaVuSans-30"/>
       <use xlink:href="#DejaVuSans-2e" x="63.623047"/>
       <use xlink:href="#DejaVuSans-34" x="95.410156"/>
      </g>
     </g>
    </g>
    <g id="xtick_4">
     <g id="line2d_7">
      <path d="M 349.43625 314.918125 
L 349.43625 22.318125 
" clip-path="url(#p98e10accf8)" style="fill: none; stroke: #b0b0b0; stroke-opacity: 0.2; stroke-width: 0.8; stroke-linecap: square"/>
     </g>
     <g id="line2d_8">
      <g>
       <use xlink:href="#mcb91f6e1fe" x="349.43625" y="314.918125" style="stroke: #000000; stroke-width: 0.8"/>
      </g>
     </g>
     <g id="text_4">
      <!-- 0.6 -->
      <g transform="translate(341.484688 329.516563) scale(0.1 -0.1)">
       <defs>
        <path id="DejaVuSans-36" d="M 2113 2584 
Q 1688 2584 1439 2293 
Q 1191 2003 1191 1497 
Q 1191 994 1439 701 
Q 1688 409 2113 409 
Q 2538 409 2786 701 
Q 3034 994 3034 1497 
Q 3034 2003 2786 2293 
Q 2538 2584 2113 2584 
z
M 3366 4563 
L 3366 3988 
Q 3128 4100 2886 4159 
Q 2644 4219 2406 4219 
Q 1781 4219 1451 3797 
Q 1122 3375 1075 2522 
Q 1259 2794 1537 2939 
Q 1816 3084 2150 3084 
Q 2853 3084 3261 2657 
Q 3669 2231 3669 1497 
Q 3669 778 3244 343 
Q 2819 -91 2113 -91 
Q 1303 -91 875 529 
Q 447 1150 447 2328 
Q 447 3434 972 4092 
Q 1497 4750 2381 4750 
Q 2619 4750 2861 4703 
Q 3103 4656 3366 4563 
z
" transform="scale(0.015625)"/>
       </defs>
       <use xlink:href="#DejaVuSans-30"/>
       <use xlink:href="#DejaVuSans-2e" x="63.623047"/>
       <use xlink:href="#DejaVuSans-36" x="95.410156"/>
      </g>
     </g>
    </g>
    <g id="xtick_5">
     <g id="line2d_9">
      <path d="M 451.32125 314.918125 
L 451.32125 22.318125 
" clip-path="url(#p98e10accf8)" style="fill: none; stroke: #b0b0b0; stroke-opacity: 0.2; stroke-width: 0.8; stroke-linecap: square"/>
     </g>
     <g id="line2d_10">
      <g>
       <use xlink:href="#mcb91f6e1fe" x="451.32125" y="314.918125" style="stroke: #000000; stroke-width: 0.8"/>
      </g>
     </g>
     <g id="text_5">
      <!-- 0.8 -->
      <g transform="translate(443.369687 329.516563) scale(0.1 -0.1)">
       <defs>
        <path id="DejaVuSans-38" d="M 2034 2216 
Q 1584 2216 1326 1975 
Q 1069 1734 1069 1313 
Q 1069 891 1326 650 
Q 1584 409 2034 409 
Q 2484 409 2743 651 
Q 3003 894 3003 1313 
Q 3003 1734 2745 1975 
Q 2488 2216 2034 2216 
z
M 1403 2484 
Q 997 2584 770 2862 
Q 544 3141 544 3541 
Q 544 4100 942 4425 
Q 1341 4750 2034 4750 
Q 2731 4750 3128 4425 
Q 3525 4100 3525 3541 
Q 3525 3141 3298 2862 
Q 3072 2584 2669 2484 
Q 3125 2378 3379 2068 
Q 3634 1759 3634 1313 
Q 3634 634 3220 271 
Q 2806 -91 2034 -91 
Q 1263 -91 848 271 
Q 434 634 434 1313 
Q 434 1759 690 2068 
Q 947 2378 1403 2484 
z
M 1172 3481 
Q 1172 3119 1398 2916 
Q 1625 2713 2034 2713 
Q 2441 2713 2670 2916 
Q 2900 3119 2900 3481 
Q 2900 3844 2670 4047 
Q 2441 4250 2034 4250 
Q 1625 4250 1398 4047 
Q 1172 3844 1172 3481 
z
" transform="scale(0.015625)"/>
       </defs>
       <use xlink:href="#DejaVuSans-30"/>
       <use xlink:href="#DejaVuSans-2e" x="63.623047"/>
       <use xlink:href="#DejaVuSans-38" x="95.410156"/>
      </g>
     </g>
    </g>
    <g id="xtick_6">
     <g id="line2d_11">
      <path d="M 553.20625 314.918125 
L 553.20625 22.318125 
" clip-path="url(#p98e10accf8)" style="fill: none; stroke: #b0b0b0; stroke-opacity: 0.2; stroke-width: 0.8; stroke-linecap: square"/>
     </g>
     <g id="line2d_12">
      <g>
       <use xlink:href="#mcb91f6e1fe" x="553.20625" y="314.918125" style="stroke: #000000; stroke-width: 0.8"/>
      </g>
     </g>
     <g id="text_6">
      <!-- 1.0 -->
      <g transform="translate(545.254687 329.516563) scale(0.1 -0.1)">
       <defs>
        <path id="DejaVuSans-31" d="M 794 531 
L 1825 531 
L 1825 4091 
L 703 3866 
L 703 4441 
L 1819 4666 
L 2450 4666 
L 2450 531 
L 3481 531 
L 3481 0 
L 794 0 
L 794 531 
z
" transform="scale(0.015625)"/>
       </defs>
       <use xlink:href="#DejaVuSans-31"/>
       <use xlink:href="#DejaVuSans-2e" x="63.623047"/>
       <use xlink:href="#DejaVuSans-30" x="95.410156"/>
      </g>
     </g>
    </g>
    <g id="text_7">
     <!-- Recall -->
     <g transform="translate(283.576562 343.194687) scale(0.1 -0.1)">
      <defs>
       <path id="DejaVuSans-52" d="M 2841 2188 
Q 3044 2119 3236 1894 
Q 3428 1669 3622 1275 
L 4263 0 
L 3584 0 
L 2988 1197 
Q 2756 1666 2539 1819 
Q 2322 1972 1947 1972 
L 1259 1972 
L 1259 0 
L 628 0 
L 628 4666 
L 2053 4666 
Q 2853 4666 3247 4331 
Q 3641 3997 3641 3322 
Q 3641 2881 3436 2590 
Q 3231 2300 2841 2188 
z
M 1259 4147 
L 1259 2491 
L 2053 2491 
Q 2509 2491 2742 2702 
Q 2975 2913 2975 3322 
Q 2975 3731 2742 3939 
Q 2509 4147 2053 4147 
L 1259 4147 
z
" transform="scale(0.015625)"/>
       <path id="DejaVuSans-65" d="M 3597 1894 
L 3597 1613 
L 953 1613 
Q 991 1019 1311 708 
Q 1631 397 2203 397 
Q 2534 397 2845 478 
Q 3156 559 3463 722 
L 3463 178 
Q 3153 47 2828 -22 
Q 2503 -91 2169 -91 
Q 1331 -91 842 396 
Q 353 884 353 1716 
Q 353 2575 817 3079 
Q 1281 3584 2069 3584 
Q 2775 3584 3186 3129 
Q 3597 2675 3597 1894 
z
M 3022 2063 
Q 3016 2534 2758 2815 
Q 2500 3097 2075 3097 
Q 1594 3097 1305 2825 
Q 1016 2553 972 2059 
L 3022 2063 
z
" transform="scale(0.015625)"/>
       <path id="DejaVuSans-63" d="M 3122 3366 
L 3122 2828 
Q 2878 2963 2633 3030 
Q 2388 3097 2138 3097 
Q 1578 3097 1268 2742 
Q 959 2388 959 1747 
Q 959 1106 1268 751 
Q 1578 397 2138 397 
Q 2388 397 2633 464 
Q 2878 531 3122 666 
L 3122 134 
Q 2881 22 2623 -34 
Q 2366 -91 2075 -91 
Q 1284 -91 818 406 
Q 353 903 353 1747 
Q 353 2603 823 3093 
Q 1294 3584 2113 3584 
Q 2378 3584 2631 3529 
Q 2884 3475 3122 3366 
z
" transform="scale(0.015625)"/>
       <path id="DejaVuSans-61" d="M 2194 1759 
Q 1497 1759 1228 1600 
Q 959 1441 959 1056 
Q 959 750 1161 570 
Q 1363 391 1709 391 
Q 2188 391 2477 730 
Q 2766 1069 2766 1631 
L 2766 1759 
L 2194 1759 
z
M 3341 1997 
L 3341 0 
L 2766 0 
L 2766 531 
Q 2569 213 2275 61 
Q 1981 -91 1556 -91 
Q 1019 -91 701 211 
Q 384 513 384 1019 
Q 384 1609 779 1909 
Q 1175 2209 1959 2209 
L 2766 2209 
L 2766 2266 
Q 2766 2663 2505 2880 
Q 2244 3097 1772 3097 
Q 1472 3097 1187 3025 
Q 903 2953 641 2809 
L 641 3341 
Q 956 3463 1253 3523 
Q 1550 3584 1831 3584 
Q 2591 3584 2966 3190 
Q 3341 2797 3341 1997 
z
" transform="scale(0.015625)"/>
       <path id="DejaVuSans-6c" d="M 603 4863 
L 1178 4863 
L 1178 0 
L 603 0 
L 603 4863 
z
" transform="scale(0.015625)"/>
      </defs>
      <use xlink:href="#DejaVuSans-52"/>
      <use xlink:href="#DejaVuSans-65" x="64.982422"/>
      <use xlink:href="#DejaVuSans-63" x="126.505859"/>
      <use xlink:href="#DejaVuSans-61" x="181.486328"/>
      <use xlink:href="#DejaVuSans-6c" x="242.765625"/>
      <use xlink:href="#DejaVuSans-6c" x="270.548828"/>
     </g>
    </g>
   </g>
   <g id="matplotlib.axis_2">
    <g id="ytick_1">
     <g id="line2d_13">
      <path d="M 43.78125 314.918125 
L 553.20625 314.918125 
" clip-path="url(#p98e10accf8)" style="fill: none; stroke: #b0b0b0; stroke-opacity: 0.2; stroke-width: 0.8; stroke-linecap: square"/>
     </g>
     <g id="line2d_14">
      <defs>
       <path id="meff0d77c79" d="M 0 0 
L -3.5 0 
" style="stroke: #000000; stroke-width: 0.8"/>
      </defs>
      <g>
       <use xlink:href="#meff0d77c79" x="43.78125" y="314.918125" style="stroke: #000000; stroke-width: 0.8"/>
      </g>
     </g>
     <g id="text_8">
      <!-- 0.0 -->
      <g transform="translate(20.878125 318.717344) scale(0.1 -0.1)">
       <use xlink:href="#DejaVuSans-30"/>
       <use xlink:href="#DejaVuSans-2e" x="63.623047"/>
       <use xlink:href="#DejaVuSans-30" x="95.410156"/>
      </g>
     </g>
    </g>
    <g id="ytick_2">
     <g id="line2d_15">
      <path d="M 43.78125 256.398125 
L 553.20625 256.398125 
" clip-path="url(#p98e10accf8)" style="fill: none; stroke: #b0b0b0; stroke-opacity: 0.2; stroke-width: 0.8; stroke-linecap: square"/>
     </g>
     <g id="line2d_16">
      <g>
       <use xlink:href="#meff0d77c79" x="43.78125" y="256.398125" style="stroke: #000000; stroke-width: 0.8"/>
      </g>
     </g>
     <g id="text_9">
      <!-- 0.2 -->
      <g transform="translate(20.878125 260.197344) scale(0.1 -0.1)">
       <use xlink:href="#DejaVuSans-30"/>
       <use xlink:href="#DejaVuSans-2e" x="63.623047"/>
       <use xlink:href="#DejaVuSans-32" x="95.410156"/>
      </g>
     </g>
    </g>
    <g id="ytick_3">
     <g id="line2d_17">
      <path d="M 43.78125 197.878125 
L 553.20625 197.878125 
" clip-path="url(#p98e10accf8)" style="fill: none; stroke: #b0b0b0; stroke-opacity: 0.2; stroke-width: 0.8; stroke-linecap: square"/>
     </g>
     <g id="line2d_18">
      <g>
       <use xlink:href="#meff0d77c79" x="43.78125" y="197.878125" style="stroke: #000000; stroke-width: 0.8"/>
      </g>
     </g>
     <g id="text_10">
      <!-- 0.4 -->
      <g transform="translate(20.878125 201.677344) scale(0.1 -0.1)">
       <use xlink:href="#DejaVuSans-30"/>
       <use xlink:href="#DejaVuSans-2e" x="63.623047"/>
       <use xlink:href="#DejaVuSans-34" x="95.410156"/>
      </g>
     </g>
    </g>
    <g id="ytick_4">
     <g id="line2d_19">
      <path d="M 43.78125 139.358125 
L 553.20625 139.358125 
" clip-path="url(#p98e10accf8)" style="fill: none; stroke: #b0b0b0; stroke-opacity: 0.2; stroke-width: 0.8; stroke-linecap: square"/>
     </g>
     <g id="line2d_20">
      <g>
       <use xlink:href="#meff0d77c79" x="43.78125" y="139.358125" style="stroke: #000000; stroke-width: 0.8"/>
      </g>
     </g>
     <g id="text_11">
      <!-- 0.6 -->
      <g transform="translate(20.878125 143.157344) scale(0.1 -0.1)">
       <use xlink:href="#DejaVuSans-30"/>
       <use xlink:href="#DejaVuSans-2e" x="63.623047"/>
       <use xlink:href="#DejaVuSans-36" x="95.410156"/>
      </g>
     </g>
    </g>
    <g id="ytick_5">
     <g id="line2d_21">
      <path d="M 43.78125 80.838125 
L 553.20625 80.838125 
" clip-path="url(#p98e10accf8)" style="fill: none; stroke: #b0b0b0; stroke-opacity: 0.2; stroke-width: 0.8; stroke-linecap: square"/>
     </g>
     <g id="line2d_22">
      <g>
       <use xlink:href="#meff0d77c79" x="43.78125" y="80.838125" style="stroke: #000000; stroke-width: 0.8"/>
      </g>
     </g>
     <g id="text_12">
      <!-- 0.8 -->
      <g transform="translate(20.878125 84.637344) scale(0.1 -0.1)">
       <use xlink:href="#DejaVuSans-30"/>
       <use xlink:href="#DejaVuSans-2e" x="63.623047"/>
       <use xlink:href="#DejaVuSans-38" x="95.410156"/>
      </g>
     </g>
    </g>
    <g id="ytick_6">
     <g id="line2d_23">
      <path d="M 43.78125 22.318125 
L 553.20625 22.318125 
" clip-path="url(#p98e10accf8)" style="fill: none; stroke: #b0b0b0; stroke-opacity: 0.2; stroke-width: 0.8; stroke-linecap: square"/>
     </g>
     <g id="line2d_24">
      <g>
       <use xlink:href="#meff0d77c79" x="43.78125" y="22.318125" style="stroke: #000000; stroke-width: 0.8"/>
      </g>
     </g>
     <g id="text_13">
      <!-- 1.0 -->
      <g transform="translate(20.878125 26.117344) scale(0.1 -0.1)">
       <use xlink:href="#DejaVuSans-31"/>
       <use xlink:href="#DejaVuSans-2e" x="63.623047"/>
       <use xlink:href="#DejaVuSans-30" x="95.410156"/>
      </g>
     </g>
    </g>
    <g id="text_14">
     <!-- Precision -->
     <g transform="translate(14.798438 190.925156) rotate(-90) scale(0.1 -0.1)">
      <defs>
       <path id="DejaVuSans-50" d="M 1259 4147 
L 1259 2394 
L 2053 2394 
Q 2494 2394 2734 2622 
Q 2975 2850 2975 3272 
Q 2975 3691 2734 3919 
Q 2494 4147 2053 4147 
L 1259 4147 
z
M 628 4666 
L 2053 4666 
Q 2838 4666 3239 4311 
Q 3641 3956 3641 3272 
Q 3641 2581 3239 2228 
Q 2838 1875 2053 1875 
L 1259 1875 
L 1259 0 
L 628 0 
L 628 4666 
z
" transform="scale(0.015625)"/>
       <path id="DejaVuSans-72" d="M 2631 2963 
Q 2534 3019 2420 3045 
Q 2306 3072 2169 3072 
Q 1681 3072 1420 2755 
Q 1159 2438 1159 1844 
L 1159 0 
L 581 0 
L 581 3500 
L 1159 3500 
L 1159 2956 
Q 1341 3275 1631 3429 
Q 1922 3584 2338 3584 
Q 2397 3584 2469 3576 
Q 2541 3569 2628 3553 
L 2631 2963 
z
" transform="scale(0.015625)"/>
       <path id="DejaVuSans-69" d="M 603 3500 
L 1178 3500 
L 1178 0 
L 603 0 
L 603 3500 
z
M 603 4863 
L 1178 4863 
L 1178 4134 
L 603 4134 
L 603 4863 
z
" transform="scale(0.015625)"/>
       <path id="DejaVuSans-73" d="M 2834 3397 
L 2834 2853 
Q 2591 2978 2328 3040 
Q 2066 3103 1784 3103 
Q 1356 3103 1142 2972 
Q 928 2841 928 2578 
Q 928 2378 1081 2264 
Q 1234 2150 1697 2047 
L 1894 2003 
Q 2506 1872 2764 1633 
Q 3022 1394 3022 966 
Q 3022 478 2636 193 
Q 2250 -91 1575 -91 
Q 1294 -91 989 -36 
Q 684 19 347 128 
L 347 722 
Q 666 556 975 473 
Q 1284 391 1588 391 
Q 1994 391 2212 530 
Q 2431 669 2431 922 
Q 2431 1156 2273 1281 
Q 2116 1406 1581 1522 
L 1381 1569 
Q 847 1681 609 1914 
Q 372 2147 372 2553 
Q 372 3047 722 3315 
Q 1072 3584 1716 3584 
Q 2034 3584 2315 3537 
Q 2597 3491 2834 3397 
z
" transform="scale(0.015625)"/>
       <path id="DejaVuSans-6f" d="M 1959 3097 
Q 1497 3097 1228 2736 
Q 959 2375 959 1747 
Q 959 1119 1226 758 
Q 1494 397 1959 397 
Q 2419 397 2687 759 
Q 2956 1122 2956 1747 
Q 2956 2369 2687 2733 
Q 2419 3097 1959 3097 
z
M 1959 3584 
Q 2709 3584 3137 3096 
Q 3566 2609 3566 1747 
Q 3566 888 3137 398 
Q 2709 -91 1959 -91 
Q 1206 -91 779 398 
Q 353 888 353 1747 
Q 353 2609 779 3096 
Q 1206 3584 1959 3584 
z
" transform="scale(0.015625)"/>
       <path id="DejaVuSans-6e" d="M 3513 2113 
L 3513 0 
L 2938 0 
L 2938 2094 
Q 2938 2591 2744 2837 
Q 2550 3084 2163 3084 
Q 1697 3084 1428 2787 
Q 1159 2491 1159 1978 
L 1159 0 
L 581 0 
L 581 3500 
L 1159 3500 
L 1159 2956 
Q 1366 3272 1645 3428 
Q 1925 3584 2291 3584 
Q 2894 3584 3203 3211 
Q 3513 2838 3513 2113 
z
" transform="scale(0.015625)"/>
      </defs>
      <use xlink:href="#DejaVuSans-50"/>
      <use xlink:href="#DejaVuSans-72" x="58.552734"/>
      <use xlink:href="#DejaVuSans-65" x="97.416016"/>
      <use xlink:href="#DejaVuSans-63" x="158.939453"/>
      <use xlink:href="#DejaVuSans-69" x="213.919922"/>
      <use xlink:href="#DejaVuSans-73" x="241.703125"/>
      <use xlink:href="#DejaVuSans-69" x="293.802734"/>
      <use xlink:href="#DejaVuSans-6f" x="321.585938"/>
      <use xlink:href="#DejaVuSans-6e" x="382.767578"/>
     </g>
    </g>
   </g>
   <g id="line2d_25">
    <path d="M 553.20625 250.204758 
L 535.163315 245.804266 
L 501.380798 237.256312 
L 446.484208 225.847492 
L 388.51648 211.552743 
L 347.056118 192.808247 
L 315.960847 173.793363 
L 290.240067 159.026673 
L 260.680365 150.585123 
L 238.798507 139.011853 
L 216.148865 131.941245 
L 192.347546 125.876055 
L 166.626766 117.798125 
L 145.128801 110.020512 
L 118.256344 109.250009 
L 93.303349 91.572563 
L 70.653707 87.340347 
L 52.994664 64.118125 
L 46.084603 64.118125 
L 44.549034 22.318125 
L 43.78125 22.318125 
" clip-path="url(#p98e10accf8)" style="fill: none; stroke: #777777; stroke-width: 1.5; stroke-linecap: square"/>
   </g>
   <g id="line2d_26">
    <path d="M 553.20625 250.204758 
L 550.902897 249.934164 
L 550.902897 249.527396 
L 550.135112 249.504667 
L 550.135112 249.493578 
L 550.135112 249.25984 
L 549.75122 249.298455 
L 549.75122 249.197811 
L 549.75122 249.175404 
L 549.367328 249.214084 
L 549.367328 249.113105 
L 549.367328 249.011814 
L 548.599543 249.06685 
L 548.599543 248.987865 
L 548.599543 248.81797 
L 548.215651 248.856888 
L 548.215651 248.754573 
L 548.215651 248.629091 
L 547.831759 248.668116 
L 547.831759 248.565137 
L 547.831759 248.473331 
L 547.063974 248.448085 
L 547.063974 248.182112 
L 546.680082 248.221414 
L 546.680082 248.1168 
L 546.680082 247.470298 
L 546.29619 247.509924 
L 546.29619 247.402983 
L 546.29619 246.228491 
L 545.528405 246.271886 
L 545.528405 246.197873 
L 545.528405 246.049369 
L 545.144513 246.089667 
L 545.144513 245.990347 
L 545.144513 245.602761 
L 544.376729 245.595741 
L 544.376729 245.583144 
L 544.376729 245.393635 
L 543.992836 245.43429 
L 543.992836 245.332836 
L 543.992836 245.065102 
L 543.225052 245.133964 
L 543.225052 245.0443 
L 543.225052 244.877168 
L 542.457267 244.946218 
L 542.457267 244.855931 
L 542.457267 244.804235 
L 542.073375 244.845284 
L 542.073375 244.741702 
L 542.073375 244.520572 
L 541.689483 244.561766 
L 541.689483 244.457264 
L 541.689483 244.194644 
L 540.537806 244.239686 
L 540.537806 244.213288 
L 540.537806 244.05449 
L 540.153914 244.095998 
L 540.153914 243.989779 
L 540.153914 243.909904 
L 539.386129 243.886421 
L 539.386129 243.766006 
L 538.618345 243.809264 
L 538.618345 243.742167 
L 538.618345 243.404776 
L 537.85056 243.380093 
L 537.85056 243.284836 
L 537.466668 243.326877 
L 537.466668 243.217744 
L 537.466668 243.149367 
L 536.698884 243.219957 
L 536.698884 243.124049 
L 536.698884 242.972817 
L 536.314992 243.01508 
L 536.314992 242.904735 
L 536.314992 242.794052 
L 535.931099 242.836419 
L 535.931099 242.725438 
L 535.931099 242.390437 
L 535.547207 242.432996 
L 535.547207 242.33474 
L 535.547207 242.320682 
L 534.39553 242.434543 
L 534.39553 242.350145 
L 534.39553 242.194904 
L 534.011638 242.237674 
L 534.011638 242.138577 
L 534.011638 242.010769 
L 533.627746 242.053644 
L 533.627746 241.953966 
L 533.627746 241.925437 
L 533.243854 241.968379 
L 533.243854 241.868389 
L 533.243854 241.83977 
L 532.092177 241.88296 
L 532.092177 241.868625 
L 532.092177 241.796868 
L 531.324392 241.883141 
L 531.324392 241.782522 
L 531.324392 241.667189 
L 530.9405 241.710436 
L 530.9405 241.60926 
L 530.9405 241.565814 
L 530.172716 241.623503 
L 530.172716 241.550977 
L 530.172716 241.186184 
L 529.404931 241.273278 
L 529.404931 241.170566 
L 529.404931 241.111744 
L 528.637147 241.154891 
L 528.637147 241.095952 
L 528.637147 240.725433 
L 528.253255 240.76929 
L 528.253255 240.664918 
L 528.253255 240.620097 
L 527.48547 240.648181 
L 527.48547 240.603269 
L 527.48547 240.528294 
L 526.717686 240.52629 
L 526.717686 240.511252 
L 526.717686 240.496208 
L 526.333793 240.540329 
L 526.333793 240.434893 
L 526.333793 240.419806 
L 525.566009 240.493115 
L 525.566009 240.4025 
L 525.566009 240.174995 
L 525.182117 240.219346 
L 525.182117 240.112743 
L 525.182117 239.867931 
L 524.414332 239.88019 
L 524.414332 239.849436 
L 524.414332 239.818658 
L 524.03044 239.863255 
L 524.03044 239.755373 
L 524.03044 239.398711 
L 522.878763 239.455261 
L 522.878763 239.424058 
L 522.878763 239.314647 
L 522.110979 239.310576 
L 522.110979 239.294893 
L 522.110979 239.279204 
L 521.727086 239.324226 
L 521.727086 239.21426 
L 521.727086 239.167033 
L 521.343194 239.212135 
L 521.343194 239.101753 
L 521.343194 238.991049 
L 520.57541 238.970539 
L 520.57541 238.859272 
L 519.807625 238.902202 
L 519.807625 238.838444 
L 519.807625 238.806524 
L 519.423733 238.851948 
L 519.423733 238.740062 
L 519.423733 238.466965 
L 518.655949 238.493674 
L 518.655949 238.461387 
L 518.655949 238.218358 
L 518.272056 238.264119 
L 518.272056 238.166512 
L 518.272056 238.068656 
L 517.12038 238.140981 
L 517.12038 238.108289 
L 517.12038 237.779831 
L 516.736487 237.825909 
L 516.736487 237.726862 
L 516.736487 237.411524 
L 516.352595 237.457781 
L 516.352595 237.357703 
L 516.352595 237.290841 
L 515.584811 237.383541 
L 515.584811 237.283108 
L 515.584811 236.946442 
L 515.200918 236.992989 
L 515.200918 236.891458 
L 515.200918 236.721651 
L 514.817026 236.768321 
L 514.817026 236.66612 
L 514.817026 236.580748 
L 514.049242 236.640117 
L 514.049242 236.571677 
L 514.049242 236.434438 
L 513.281457 236.476696 
L 513.281457 236.425078 
L 513.281457 236.044464 
L 511.745888 236.146173 
L 511.745888 236.128772 
L 511.745888 235.989291 
L 510.978104 236.014026 
L 510.978104 235.979043 
L 510.978104 235.92651 
L 510.594212 235.973905 
L 510.594212 235.868669 
L 510.594212 235.338255 
L 509.826427 235.344559 
L 509.826427 235.326729 
L 509.826427 235.273192 
L 509.058643 235.333026 
L 509.058643 235.261521 
L 509.058643 235.243625 
L 508.290858 235.303553 
L 508.290858 235.231877 
L 508.290858 235.160071 
L 507.906966 235.20803 
L 507.906966 235.10012 
L 507.906966 235.028017 
L 507.523074 235.076065 
L 507.523074 234.967707 
L 507.523074 234.859054 
L 506.755289 234.900982 
L 506.755289 234.846512 
L 506.755289 234.499802 
L 506.371397 234.548168 
L 506.371397 234.438098 
L 506.371397 234.40134 
L 505.987505 234.449783 
L 505.987505 234.339351 
L 505.987505 234.284021 
L 504.835828 234.374325 
L 504.835828 234.318905 
L 504.835828 234.189294 
L 502.532475 234.370555 
L 502.532475 234.333428 
L 502.148582 234.382302 
L 502.148582 234.270757 
L 502.148582 234.214868 
L 500.996906 234.249931 
L 500.996906 234.231253 
L 499.845229 234.341213 
L 499.845229 234.28514 
L 499.845229 234.247714 
L 499.077444 234.252481 
L 499.077444 234.233726 
L 498.693552 234.283009 
L 498.693552 234.189138 
L 498.693552 233.906209 
L 497.157983 234.028471 
L 497.157983 234.009532 
L 497.157983 233.762512 
L 496.774091 233.812182 
L 496.774091 233.716808 
L 496.774091 233.294484 
L 496.006307 233.355702 
L 496.006307 233.29776 
L 496.006307 233.084602 
L 495.238522 233.16531 
L 495.238522 233.087542 
L 495.238522 233.068077 
L 494.470738 233.070996 
L 494.470738 232.698786 
L 494.086845 232.749152 
L 494.086845 232.650675 
L 494.086845 232.630952 
L 492.935169 232.683679 
L 492.935169 232.525345 
L 492.167384 232.606757 
L 492.167384 232.527382 
L 492.167384 232.22836 
L 491.783492 232.279161 
L 491.783492 232.179041 
L 491.783492 231.369263 
L 491.015707 231.410286 
L 491.015707 231.36935 
L 491.015707 231.205208 
L 489.864031 231.276993 
L 489.864031 231.256412 
L 489.864031 230.780238 
L 489.480138 230.831838 
L 489.480138 230.727642 
L 489.480138 230.685891 
L 489.096246 230.737569 
L 489.096246 230.633049 
L 489.096246 230.444257 
L 488.328462 230.526892 
L 488.328462 230.442732 
L 488.328462 230.337296 
L 487.560677 230.335579 
L 487.560677 230.187263 
L 486.792893 230.227781 
L 486.792893 230.185277 
L 486.792893 229.564131 
L 486.409001 229.616532 
L 486.409001 229.508555 
L 486.409001 229.465288 
L 485.257324 229.557902 
L 485.257324 229.514572 
L 485.257324 229.319041 
L 484.489539 229.402646 
L 484.489539 229.315475 
L 484.489539 229.271822 
L 484.105647 229.324603 
L 484.105647 229.215316 
L 484.105647 229.039875 
L 483.337863 229.101783 
L 483.337863 229.035787 
L 483.337863 228.70428 
L 482.570078 228.721785 
L 482.570078 228.699564 
L 482.570078 228.499055 
L 482.186186 228.552346 
L 482.186186 228.440589 
L 482.186186 228.216205 
L 481.418401 228.300623 
L 481.418401 228.233094 
L 481.418401 228.029873 
L 481.034509 228.083472 
L 481.034509 227.992877 
L 481.034509 227.947509 
L 480.266725 227.986795 
L 480.266725 227.964074 
L 480.266725 227.895839 
L 479.49894 227.912361 
L 479.49894 227.752508 
L 478.347264 227.822884 
L 478.347264 227.547194 
L 477.963371 227.601344 
L 477.963371 227.509092 
L 477.963371 227.277606 
L 477.195587 227.386223 
L 477.195587 227.29335 
L 477.195587 227.176983 
L 476.04391 227.24713 
L 476.04391 227.200447 
L 475.660018 227.255009 
L 475.660018 227.161527 
L 475.660018 226.47777 
L 475.276126 226.532637 
L 475.276126 226.437522 
L 475.276126 226.318341 
L 474.892233 226.373312 
L 474.892233 226.277769 
L 474.892233 226.253851 
L 474.124449 226.363967 
L 474.124449 226.268233 
L 474.124449 225.053851 
L 473.356664 225.14039 
L 473.356664 225.066478 
L 473.356664 224.868785 
L 472.972772 224.924507 
L 472.972772 224.825368 
L 472.972772 224.701137 
L 472.204988 224.812827 
L 472.204988 224.713263 
L 472.204988 224.588498 
L 471.821096 224.644467 
L 471.821096 224.544441 
L 471.821096 224.293403 
L 471.437203 224.349523 
L 471.437203 224.248751 
L 471.437203 224.021192 
L 470.669419 224.057695 
L 470.669419 224.032315 
L 470.669419 223.573038 
L 469.901634 223.583479 
L 469.901634 223.454875 
L 469.517742 223.511533 
L 469.517742 223.408424 
L 469.517742 223.253323 
L 469.13385 223.3101 
L 469.13385 223.206442 
L 469.13385 223.050514 
L 468.366065 223.086229 
L 468.366065 223.060163 
L 468.366065 222.955749 
L 467.598281 223.017584 
L 467.598281 222.965264 
L 467.598281 222.781673 
L 467.214389 222.838867 
L 467.214389 222.733663 
L 467.214389 222.654603 
L 466.062712 222.721047 
L 466.062712 222.694629 
L 465.294927 222.756679 
L 465.294927 222.703774 
L 465.294927 222.464945 
L 463.759359 222.589195 
L 463.759359 221.91859 
L 462.991574 221.926507 
L 462.991574 221.436791 
L 462.22379 221.471304 
L 462.22379 221.443916 
L 462.22379 220.837299 
L 461.456005 220.843421 
L 461.456005 220.732089 
L 461.072113 220.790809 
L 461.072113 220.679251 
L 461.072113 220.567428 
L 460.304328 220.685118 
L 460.304328 220.573103 
L 460.304328 220.460821 
L 459.920436 220.519792 
L 459.920436 220.435432 
L 459.920436 219.669356 
L 459.536544 219.728639 
L 459.536544 219.642779 
L 459.536544 219.585454 
L 459.152652 219.644818 
L 459.152652 219.558727 
L 459.152652 219.529996 
L 457.617083 219.681772 
L 457.617083 219.50893 
L 457.23319 219.568594 
L 457.23319 219.481965 
L 457.23319 219.424125 
L 456.465406 219.543656 
L 456.465406 219.45682 
L 456.465406 219.253587 
L 456.081514 219.313501 
L 456.081514 219.226164 
L 456.081514 219.197016 
L 455.313729 219.258717 
L 455.313729 219.229534 
L 455.313729 219.141881 
L 454.162053 219.293117 
L 454.162053 219.234613 
L 454.162053 219.058671 
L 453.77816 219.118983 
L 453.77816 219.030798 
L 453.77816 218.765263 
L 453.394268 218.825727 
L 453.394268 218.736917 
L 453.394268 218.588535 
L 453.010376 218.649113 
L 453.010376 218.559892 
L 453.010376 218.440674 
L 452.626484 218.501355 
L 452.626484 218.411776 
L 452.626484 218.20211 
L 452.242591 218.262925 
L 452.242591 218.172817 
L 452.242591 217.750085 
L 451.474807 217.8115 
L 451.474807 217.781145 
L 451.474807 217.75077 
L 451.090915 217.8119 
L 451.090915 217.720692 
L 451.090915 217.629313 
L 450.32313 217.66031 
L 450.32313 217.507437 
L 449.939238 217.568817 
L 449.939238 217.476891 
L 449.939238 217.292518 
L 449.555346 217.354024 
L 449.555346 217.261605 
L 449.555346 217.16901 
L 449.171453 217.230613 
L 449.171453 217.137872 
L 449.171453 216.765139 
L 448.787561 216.826927 
L 448.787561 216.733329 
L 448.787561 216.639551 
L 448.403669 216.701437 
L 448.403669 216.60751 
L 448.403669 216.419115 
L 447.635885 216.480261 
L 447.635885 216.448771 
L 447.635885 216.322609 
L 447.251992 216.38477 
L 447.251992 216.289966 
L 447.251992 216.258324 
L 446.8681 216.320564 
L 446.8681 216.225545 
L 446.8681 216.130344 
L 446.484208 216.192683 
L 446.484208 216.097327 
L 446.484208 216.0655 
L 445.716423 216.094835 
L 445.716423 215.999107 
L 444.948639 216.124264 
L 444.948639 216.02841 
L 444.948639 215.996417 
L 444.564747 216.059096 
L 444.564747 215.963023 
L 444.564747 215.576857 
L 444.180854 215.639726 
L 444.180854 215.542742 
L 444.180854 215.380682 
L 443.796962 215.443671 
L 443.796962 215.346211 
L 443.796962 215.052681 
L 443.029178 215.080855 
L 443.029178 214.454606 
L 442.645285 214.518059 
L 442.645285 214.418489 
L 442.645285 214.252099 
L 442.261393 214.315674 
L 442.261393 214.215605 
L 442.261393 214.182205 
L 441.877501 214.245862 
L 441.877501 214.145558 
L 441.877501 213.776058 
L 441.493609 213.839899 
L 441.493609 213.738686 
L 441.493609 213.39984 
L 440.341932 213.490004 
L 440.341932 213.387792 
L 439.190255 213.478206 
L 439.190255 213.307201 
L 438.422471 213.367551 
L 438.422471 213.333255 
L 438.422471 213.264593 
L 438.038579 213.329146 
L 438.038579 213.22601 
L 438.038579 213.019108 
L 437.654686 213.083797 
L 437.654686 212.98006 
L 437.654686 212.771953 
L 437.270794 212.836777 
L 437.270794 212.732435 
L 437.270794 212.383082 
L 436.886902 212.448084 
L 436.886902 212.342843 
L 436.886902 212.202184 
L 436.50301 212.267302 
L 436.50301 212.161585 
L 436.50301 211.914064 
L 436.119117 211.97933 
L 436.119117 211.872915 
L 436.119117 211.76628 
L 435.351333 211.861495 
L 435.351333 211.790274 
L 435.351333 211.611791 
L 434.967441 211.677336 
L 434.967441 211.569979 
L 434.967441 211.498285 
L 434.583548 211.563927 
L 434.583548 211.456229 
L 434.583548 211.420279 
L 434.199656 211.486008 
L 434.199656 211.378041 
L 434.199656 211.269849 
L 433.815764 211.335686 
L 433.815764 211.227298 
L 433.815764 211.191119 
L 433.431872 211.257043 
L 433.431872 211.148384 
L 433.431872 210.966777 
L 433.047979 211.032831 
L 433.047979 210.923593 
L 433.047979 210.887129 
L 432.664087 210.953271 
L 432.664087 210.843757 
L 432.664087 210.77062 
L 431.896303 210.829948 
L 431.896303 210.79331 
L 431.896303 210.756646 
L 431.128518 210.852774 
L 431.128518 210.77936 
L 431.128518 210.484662 
L 430.360734 210.543984 
L 430.360734 210.506998 
L 430.360734 210.284531 
L 429.209057 210.373499 
L 429.209057 210.261766 
L 428.05738 210.35097 
L 428.05738 210.238854 
L 427.673488 210.306041 
L 427.673488 210.193716 
L 427.673488 209.590551 
L 427.289596 209.657988 
L 427.289596 209.582125 
L 427.289596 209.506152 
L 426.137919 209.708883 
L 426.137919 209.632865 
L 426.137919 209.174438 
L 425.754027 209.242263 
L 425.754027 209.165492 
L 425.754027 209.050125 
L 424.60235 209.177069 
L 424.60235 208.867997 
L 423.450674 209.033968 
L 423.450674 208.995211 
L 423.450674 208.956426 
L 422.298997 209.084082 
L 422.298997 208.967482 
L 421.915105 209.036053 
L 421.915105 208.958199 
L 421.915105 208.37062 
L 421.531212 208.439427 
L 421.531212 208.360612 
L 421.531212 208.321161 
L 421.14732 208.390051 
L 421.14732 208.311083 
L 421.14732 207.994036 
L 420.763428 208.063086 
L 420.763428 207.983551 
L 420.763428 207.824126 
L 420.379536 207.893293 
L 420.379536 207.813424 
L 420.379536 206.967542 
L 419.995643 207.037011 
L 419.995643 206.955776 
L 419.995643 206.874417 
L 419.227859 206.932163 
L 419.227859 206.72803 
L 418.460074 206.826679 
L 418.460074 206.785751 
L 418.460074 206.621728 
L 418.076182 206.691645 
L 418.076182 206.609469 
L 418.076182 206.444741 
L 416.924505 206.572525 
L 416.924505 206.44856 
L 416.156721 206.589117 
L 416.156721 206.50636 
L 416.156721 206.381987 
L 415.388937 206.522871 
L 415.388937 206.439841 
L 415.388937 206.398278 
L 415.005044 206.468834 
L 415.005044 206.385636 
L 415.005044 206.218855 
L 414.621152 206.289532 
L 414.621152 206.205971 
L 414.621152 206.038464 
L 413.853368 206.096211 
L 413.853368 206.012179 
L 413.469475 206.083131 
L 413.469475 205.998991 
L 413.469475 205.956872 
L 412.701691 206.099007 
L 412.701691 206.014717 
L 412.701691 205.803418 
L 411.933906 205.903595 
L 411.933906 205.861226 
L 411.933906 205.606321 
L 411.550014 205.677751 
L 411.550014 205.59254 
L 411.550014 205.464474 
L 410.78223 205.56488 
L 410.78223 205.522114 
L 410.78223 205.178776 
L 410.398337 205.250543 
L 410.398337 205.164394 
L 410.398337 205.121268 
L 409.246661 205.337008 
L 409.246661 205.250723 
L 409.246661 205.20753 
L 408.478876 205.265265 
L 408.478876 205.091969 
L 408.094984 205.164212 
L 408.094984 205.077381 
L 408.094984 205.033914 
L 407.3272 205.135161 
L 407.3272 205.091649 
L 407.3272 204.960903 
L 406.559415 205.062344 
L 406.559415 205.018681 
L 406.559415 204.799845 
L 406.175523 204.872547 
L 406.175523 204.784792 
L 406.175523 204.740861 
L 405.791631 204.813656 
L 405.791631 204.725713 
L 405.791631 204.593535 
L 405.407738 204.666445 
L 405.407738 204.578173 
L 405.407738 204.533984 
L 405.023846 204.606987 
L 405.023846 204.518526 
L 405.023846 204.341177 
L 403.872169 204.516355 
L 403.872169 204.471928 
L 403.872169 204.382966 
L 403.104385 204.485222 
L 403.104385 204.440674 
L 403.104385 203.451458 
L 402.720493 203.52521 
L 402.720493 203.434425 
L 402.720493 202.702785 
L 402.3366 202.776804 
L 402.3366 202.684696 
L 402.3366 202.361123 
L 401.952708 202.435307 
L 401.952708 202.342537 
L 401.952708 202.296095 
L 401.184924 202.351761 
L 401.184924 202.025212 
L 400.801031 202.099717 
L 400.801031 202.006092 
L 400.801031 201.818374 
L 399.649355 201.948446 
L 399.649355 201.854265 
L 398.88157 201.95694 
L 398.88157 201.909774 
L 398.88157 201.815325 
L 398.497678 201.890366 
L 398.497678 201.795782 
L 398.497678 201.653609 
L 397.729894 201.803995 
L 397.729894 201.709061 
L 397.729894 201.088083 
L 396.962109 201.191044 
L 396.962109 201.142977 
L 396.962109 201.094869 
L 396.194325 201.198057 
L 396.194325 201.149891 
L 396.194325 201.005148 
L 395.042648 201.18448 
L 395.042648 201.136145 
L 395.042648 200.747976 
L 394.658756 200.824098 
L 394.658756 200.726665 
L 394.658756 200.580203 
L 394.274863 200.656448 
L 394.274863 200.558622 
L 394.274863 200.411567 
L 393.123187 200.640872 
L 393.123187 200.591805 
L 393.123187 200.345836 
L 391.97151 200.477332 
L 391.97151 200.180468 
L 391.587618 200.257398 
L 391.587618 200.158125 
L 391.587618 200.008892 
L 391.203726 200.085948 
L 391.203726 199.986267 
L 391.203726 199.535554 
L 390.052049 199.666946 
L 390.052049 199.616596 
L 389.668157 199.694087 
L 389.668157 199.593278 
L 389.668157 199.542808 
L 389.284264 199.620402 
L 389.284264 199.519352 
L 389.284264 199.468761 
L 388.900372 199.546458 
L 388.900372 199.445166 
L 388.900372 199.394454 
L 387.748695 199.526576 
L 387.748695 199.374009 
L 387.364803 199.452076 
L 387.364803 199.350164 
L 387.364803 198.992052 
L 386.980911 199.070295 
L 386.980911 198.967593 
L 386.980911 198.864709 
L 385.829234 198.997005 
L 385.829234 197.904391 
L 385.445342 197.983235 
L 385.445342 197.878125 
L 385.445342 196.977002 
L 384.677557 197.135351 
L 384.677557 197.02847 
L 384.677557 196.70666 
L 383.909773 196.811701 
L 383.909773 196.75787 
L 383.909773 196.59608 
L 382.758096 196.727 
L 382.758096 195.965178 
L 381.60642 196.150597 
L 381.60642 196.09579 
L 381.60642 195.876054 
L 381.222527 195.95633 
L 381.222527 195.846181 
L 381.222527 195.01351 
L 380.454743 195.062824 
L 380.454743 193.932646 
L 380.070851 194.013597 
L 380.070851 193.956539 
L 380.070851 192.629194 
L 379.303066 192.791859 
L 379.303066 192.73351 
L 379.303066 192.323494 
L 378.919174 192.405031 
L 378.919174 192.346244 
L 378.919174 192.2874 
L 378.535282 192.369038 
L 378.535282 192.310148 
L 378.535282 191.955619 
L 378.151389 192.037411 
L 378.151389 191.978135 
L 378.151389 191.62127 
L 377.767497 191.703217 
L 377.767497 191.643549 
L 377.767497 191.583823 
L 377.383605 191.665871 
L 377.383605 191.606098 
L 377.383605 191.366424 
L 376.999713 191.448606 
L 376.999713 191.388553 
L 376.999713 191.147755 
L 376.231928 191.312466 
L 376.231928 191.252142 
L 376.231928 191.191758 
L 375.464144 191.356835 
L 375.464144 191.296414 
L 375.464144 191.114795 
L 374.696359 191.280282 
L 374.696359 191.219645 
L 374.696359 191.037378 
L 374.312467 191.120287 
L 374.312467 191.059423 
L 374.312467 190.998499 
L 373.544683 191.164605 
L 373.544683 191.103642 
L 373.544683 190.058016 
L 372.776898 190.162802 
L 372.776898 189.664279 
L 371.625221 189.915424 
L 371.625221 189.85286 
L 371.625221 189.539098 
L 371.241329 189.623045 
L 371.241329 189.560114 
L 371.241329 189.434063 
L 370.857437 189.518125 
L 370.857437 189.455015 
L 370.857437 188.947837 
L 370.089652 189.116405 
L 370.089652 189.05274 
L 370.089652 188.733447 
L 369.321868 188.902483 
L 369.321868 188.83845 
L 369.321868 188.645962 
L 368.554083 188.751153 
L 368.554083 188.493406 
L 367.786299 188.663319 
L 367.786299 188.598739 
L 367.786299 188.469379 
L 367.402407 188.554498 
L 367.402407 188.489729 
L 367.402407 188.359993 
L 366.634622 188.530554 
L 366.634622 188.465607 
L 366.634622 188.139866 
L 366.25073 188.225341 
L 366.25073 188.160002 
L 366.25073 187.700734 
L 365.866838 187.78638 
L 365.866838 187.720508 
L 365.866838 187.058021 
L 365.099053 187.163195 
L 365.099053 185.680025 
L 364.715161 185.766277 
L 364.715161 185.698051 
L 364.715161 185.561383 
L 364.331269 185.647755 
L 364.331269 185.579321 
L 364.331269 184.125298 
L 363.563484 184.228688 
L 363.563484 184.088388 
L 363.179592 184.175268 
L 363.179592 184.105014 
L 363.179592 183.752608 
L 362.7957 183.839634 
L 362.7957 183.768934 
L 362.7957 183.698157 
L 362.411808 183.785296 
L 362.411808 183.714451 
L 362.411808 183.144929 
L 362.027915 183.23224 
L 362.027915 183.160711 
L 362.027915 182.441118 
L 361.644023 182.528617 
L 361.644023 182.456233 
L 361.644023 182.165906 
L 360.492346 182.356346 
L 360.492346 181.918125 
L 360.108454 182.006107 
L 360.108454 181.932797 
L 360.108454 181.712379 
L 359.724562 181.800491 
L 359.724562 181.726864 
L 359.724562 181.134903 
L 359.34067 181.223183 
L 359.34067 181.148826 
L 359.34067 181.074385 
L 358.956778 181.16278 
L 358.956778 181.088264 
L 358.956778 180.938984 
L 358.188993 181.116115 
L 358.188993 181.041365 
L 358.188993 180.66636 
L 357.421209 180.768742 
L 357.421209 180.618013 
L 357.037316 180.706995 
L 357.037316 180.631511 
L 357.037316 180.328723 
L 356.653424 180.417843 
L 356.653424 180.34194 
L 356.653424 180.265951 
L 356.269532 180.355187 
L 356.269532 180.27912 
L 356.269532 180.202967 
L 355.88564 180.292319 
L 355.88564 180.216086 
L 355.88564 180.139768 
L 355.501747 180.229236 
L 355.501747 180.152839 
L 355.501747 179.461341 
L 355.117855 179.550983 
L 355.117855 179.473719 
L 355.117855 178.617953 
L 354.733963 178.70778 
L 354.733963 178.629453 
L 354.733963 178.236464 
L 353.966178 178.337651 
L 353.966178 177.862589 
L 353.582286 177.952812 
L 353.582286 177.873319 
L 353.582286 177.714058 
L 353.198394 177.804404 
L 353.198394 177.72464 
L 353.198394 177.244103 
L 352.430609 177.425197 
L 352.430609 177.344792 
L 352.430609 176.941351 
L 352.046717 177.032092 
L 352.046717 176.951126 
L 352.046717 176.463322 
L 350.895041 176.654687 
L 350.895041 176.245139 
L 350.511148 176.336382 
L 350.511148 176.254187 
L 350.511148 176.089503 
L 349.743364 176.189868 
L 349.743364 176.107292 
L 348.975579 176.207928 
L 348.975579 176.042304 
L 347.823903 176.318125 
L 347.823903 176.235181 
L 347.823903 175.147799 
L 347.056118 175.332376 
L 347.056118 175.248034 
L 347.056118 174.739835 
L 346.288334 174.924925 
L 346.288334 174.839875 
L 346.288334 174.669463 
L 345.520549 174.855031 
L 345.520549 174.769679 
L 345.520549 174.341352 
L 344.752765 174.527427 
L 344.752765 174.441456 
L 344.752765 174.096517 
L 343.98498 174.283091 
L 343.98498 174.1966 
L 343.98498 173.936486 
L 343.601088 174.029962 
L 343.601088 173.943048 
L 343.601088 173.243853 
L 343.217196 173.33748 
L 343.217196 173.249596 
L 343.217196 172.896968 
L 342.833304 172.990728 
L 342.833304 172.902299 
L 342.833304 172.547482 
L 342.065519 172.735386 
L 342.065519 172.64641 
L 342.065519 172.468125 
L 341.681627 172.562263 
L 341.681627 172.472956 
L 341.681627 172.024733 
L 341.297735 172.119007 
L 341.297735 172.029026 
L 341.297735 171.938932 
L 340.146058 172.132284 
L 340.146058 171.861 
L 339.378273 171.960003 
L 339.378273 171.322204 
L 338.610489 171.420807 
L 338.610489 170.498588 
L 338.226597 170.593881 
L 338.226597 170.501008 
L 338.226597 170.314903 
L 337.842704 170.410324 
L 337.842704 170.317093 
L 337.842704 170.036677 
L 337.07492 170.134187 
L 337.07492 169.758125 
L 336.307135 169.949855 
L 336.307135 169.855536 
L 336.307135 169.761094 
L 335.923243 169.857148 
L 335.923243 169.762584 
L 335.923243 169.097169 
L 335.539351 169.193354 
L 335.539351 169.097797 
L 335.539351 168.810372 
L 334.771567 168.907065 
L 334.771567 168.714565 
L 334.003782 168.907828 
L 334.003782 168.811388 
L 334.003782 168.618125 
L 332.852105 168.90898 
L 332.852105 168.812157 
L 332.852105 167.934936 
L 332.468213 168.032144 
L 332.468213 167.934023 
L 332.468213 167.737389 
L 331.700429 167.932191 
L 331.700429 167.833675 
L 331.700429 167.636246 
L 330.932644 167.831566 
L 330.932644 167.732651 
L 330.932644 167.136356 
L 329.780967 167.330447 
L 329.780967 167.230456 
L 329.013183 167.326951 
L 329.013183 167.226685 
L 328.245398 167.423839 
L 328.245398 167.323435 
L 328.245398 167.021399 
L 327.861506 167.120173 
L 327.861506 167.019218 
L 327.861506 166.918125 
L 327.477614 167.017031 
L 327.477614 166.915798 
L 327.477614 166.712916 
L 326.70983 166.809471 
L 326.70983 166.605745 
L 325.942045 166.702412 
L 325.942045 165.67385 
L 325.174261 165.873094 
L 325.174261 165.769446 
L 325.174261 165.561718 
L 324.406476 165.657413 
L 324.406476 165.239609 
L 324.022584 165.339694 
L 324.022584 165.234873 
L 324.022584 164.919529 
L 323.638692 165.019741 
L 323.638692 164.914328 
L 323.638692 164.597195 
L 323.254799 164.697533 
L 323.254799 164.591519 
L 323.254799 164.485357 
L 322.487015 164.580121 
L 322.487015 163.939021 
L 321.71923 164.033225 
L 321.71923 163.710131 
L 320.183661 164.00695 
L 320.183661 163.89877 
L 319.799769 164.000334 
L 319.799769 163.891994 
L 319.799769 163.129236 
L 318.2642 163.536794 
L 318.2642 163.427176 
L 318.2642 162.876701 
L 316.728631 163.175893 
L 316.728631 162.843125 
L 316.344739 162.945923 
L 316.344739 162.83467 
L 316.344739 162.611673 
L 315.576955 162.705928 
L 315.576955 161.80593 
L 315.193062 161.909101 
L 315.193062 161.795845 
L 315.193062 161.568829 
L 314.80917 161.672131 
L 314.80917 161.558363 
L 314.80917 161.330318 
L 314.425278 161.43375 
L 314.425278 161.319465 
L 314.425278 160.975588 
L 313.273601 161.286711 
L 313.273601 161.171718 
L 313.273601 161.056552 
L 312.889709 161.160554 
L 312.889709 160.813993 
L 312.505817 160.918125 
L 312.505817 160.45357 
L 312.121924 160.557823 
L 312.121924 160.207535 
L 311.738032 160.311918 
L 311.738032 160.194792 
L 310.586356 160.508862 
L 310.586356 159.208324 
L 310.202463 159.313221 
L 310.202463 159.193892 
L 309.434679 159.404147 
L 309.434679 159.284612 
L 309.050787 159.389971 
L 309.050787 158.909946 
L 307.515218 159.332831 
L 307.515218 158.485285 
L 307.131325 158.591334 
L 307.131325 157.857405 
L 305.979649 158.176321 
L 305.979649 157.806647 
L 305.595756 157.913247 
L 305.595756 157.417573 
L 305.211864 157.524286 
L 305.211864 157.150429 
L 304.827972 157.257269 
L 304.827972 157.132241 
L 304.060187 157.346401 
L 304.060187 156.591868 
L 303.292403 156.806534 
L 303.292403 156.680045 
L 302.908511 156.787621 
L 302.908511 156.660913 
L 302.524619 156.768646 
L 302.524619 155.490154 
L 302.140726 155.597898 
L 302.140726 154.950781 
L 301.372942 155.16662 
L 301.372942 154.775711 
L 300.221265 155.100627 
L 300.221265 154.969843 
L 299.837373 155.078485 
L 299.837373 154.289154 
L 299.453481 154.397861 
L 299.453481 154.265528 
L 298.685696 154.483443 
L 298.685696 154.350852 
L 298.301804 154.46006 
L 298.301804 154.060911 
L 297.534019 154.279753 
L 297.534019 154.146221 
L 297.150127 154.255895 
L 297.150127 153.314778 
L 296.766235 153.42449 
L 296.766235 152.197956 
L 296.382343 152.307652 
L 296.382343 151.340555 
L 295.99845 151.450268 
L 295.99845 151.171788 
L 295.614558 151.281637 
L 295.614558 151.142016 
L 295.230666 151.252028 
L 295.230666 150.831652 
L 294.846774 150.941775 
L 294.846774 150.801144 
L 294.462881 150.91143 
L 294.462881 150.629389 
L 294.078989 150.739812 
L 294.078989 150.598401 
L 293.695097 150.708987 
L 293.695097 150.567305 
L 292.927313 150.788998 
L 292.927313 150.647018 
L 292.159528 150.869425 
L 292.159528 150.727145 
L 290.240067 151.286418 
L 290.240067 151.000848 
L 289.856175 151.113234 
L 289.856175 150.394792 
L 289.472282 150.507238 
L 289.472282 150.218037 
L 289.08839 150.330625 
L 289.08839 150.185614 
L 288.320606 150.411329 
L 288.320606 149.38864 
L 287.552821 149.614744 
L 287.552821 149.467546 
L 287.168929 149.58087 
L 287.168929 149.285625 
L 286.785037 149.39909 
L 286.785037 149.251041 
L 286.401144 149.364678 
L 286.401144 148.620283 
L 286.017252 148.733967 
L 286.017252 148.133482 
L 285.63336 148.247239 
L 285.63336 147.793918 
L 285.249468 147.90778 
L 285.249468 147.604125 
L 284.865576 147.718125 
L 284.865576 147.413294 
L 284.481683 147.527432 
L 284.481683 147.374563 
L 284.097791 147.488875 
L 284.097791 146.874455 
L 283.713899 146.988832 
L 283.713899 146.524939 
L 283.330007 146.639415 
L 283.330007 146.484177 
L 282.946114 146.598827 
L 282.946114 145.503813 
L 282.562222 145.618404 
L 282.562222 145.144618 
L 282.17833 145.259301 
L 282.17833 145.100742 
L 281.410545 145.330672 
L 281.410545 145.171733 
L 280.642761 145.402444 
L 280.642761 144.923586 
L 280.258869 145.039143 
L 280.258869 144.87888 
L 279.874976 144.994612 
L 279.874976 144.511875 
L 279.107192 144.743742 
L 279.107192 144.420216 
L 278.339407 144.652792 
L 278.339407 144.49048 
L 277.571623 144.723856 
L 277.571623 144.561146 
L 277.187731 144.678125 
L 277.187731 144.351682 
L 276.419946 144.586137 
L 276.419946 144.093848 
L 275.652162 144.328936 
L 275.652162 143.998976 
L 274.884377 144.234792 
L 274.884377 144.06924 
L 273.732701 144.424545 
L 273.732701 144.258534 
L 273.348808 144.377384 
L 273.348808 143.542219 
L 272.964916 143.661066 
L 272.964916 143.155883 
L 272.581024 143.274818 
L 272.581024 143.105711 
L 272.197132 143.224831 
L 272.197132 142.374022 
L 271.813239 142.493125 
L 271.813239 141.46064 
L 271.429347 141.579663 
L 271.429347 141.23264 
L 270.661563 141.471184 
L 270.661563 140.772506 
L 270.27767 140.891915 
L 270.27767 140.540347 
L 269.509886 140.779663 
L 269.509886 140.249293 
L 268.742102 140.489234 
L 268.742102 140.311608 
L 267.590425 140.673181 
L 267.590425 140.316487 
L 267.206533 140.437387 
L 267.206533 140.258433 
L 266.438748 140.500859 
L 266.438748 139.236966 
L 265.287071 139.601199 
L 265.287071 139.053333 
L 264.135395 139.419274 
L 264.135395 138.867391 
L 262.215933 139.481455 
L 262.215933 138.925102 
L 261.448149 139.17215 
L 261.448149 138.985781 
L 260.296472 139.358125 
L 260.296472 139.17116 
L 259.144796 139.545689 
L 259.144796 139.170159 
L 258.760903 139.295403 
L 258.760903 139.106966 
L 258.377011 139.232411 
L 258.377011 138.474328 
L 257.609227 138.725476 
L 257.609227 136.799874 
L 257.225334 136.925127 
L 257.225334 136.534792 
L 255.689765 137.037949 
L 255.689765 136.84183 
L 255.305873 136.968235 
L 255.305873 136.37704 
L 254.921981 136.503491 
L 254.921981 135.908114 
L 254.538089 136.034606 
L 254.538089 135.434997 
L 254.154196 135.561525 
L 254.154196 135.159381 
L 253.770304 135.286026 
L 253.770304 135.084192 
L 253.386412 135.211038 
L 253.386412 134.398803 
L 253.00252 134.525591 
L 253.00252 134.321296 
L 252.618628 134.448284 
L 252.618628 134.243437 
L 251.466951 134.62587 
L 251.466951 133.593268 
L 250.699166 133.848779 
L 250.699166 132.381782 
L 250.315274 132.509319 
L 250.315274 132.297707 
L 249.931382 132.425442 
L 249.931382 131.787356 
L 249.163597 132.043125 
L 249.163597 131.829236 
L 248.779705 131.957469 
L 248.779705 131.527984 
L 248.395813 131.656315 
L 248.395813 131.440713 
L 247.628028 131.698078 
L 247.628028 130.829736 
L 244.940783 131.737241 
L 244.940783 131.518125 
L 244.172998 131.779996 
L 244.172998 131.560142 
L 243.405214 131.823059 
L 243.405214 131.602462 
L 241.869645 132.131684 
L 241.869645 130.118125 
L 241.10186 130.382665 
L 241.10186 130.155963 
L 240.717968 130.288605 
L 240.717968 130.061228 
L 240.334076 130.194081 
L 240.334076 129.966026 
L 239.182399 130.366204 
L 239.182399 129.90769 
L 238.798507 130.041508 
L 238.798507 129.580469 
L 237.262938 130.118125 
L 237.262938 129.653803 
L 236.879046 129.788817 
L 236.879046 129.555656 
L 236.111261 129.826458 
L 236.111261 129.592461 
L 235.727369 129.728252 
L 235.727369 127.594181 
L 235.343477 127.729151 
L 235.343477 127.488857 
L 234.959585 127.624038 
L 234.959585 126.412562 
L 233.424016 126.954016 
L 233.424016 126.463888 
L 232.656231 126.736164 
L 232.656231 126.242896 
L 232.272339 126.37928 
L 232.272339 126.131528 
L 231.504554 126.405082 
L 231.504554 125.406337 
L 231.120662 125.543059 
L 231.120662 125.291565 
L 230.73677 125.428497 
L 230.73677 124.415184 
L 230.352878 124.55186 
L 230.352878 124.296677 
L 228.433417 124.984792 
L 228.433417 124.470764 
L 227.28174 124.887147 
L 227.28174 124.628601 
L 226.897848 124.767989 
L 226.897848 124.508575 
L 226.513955 124.64818 
L 226.513955 124.387892 
L 225.746171 124.667919 
L 225.746171 123.881761 
L 224.978386 124.162324 
L 224.978386 123.898485 
L 223.82671 124.321736 
L 223.82671 124.056651 
L 223.058925 124.34044 
L 223.058925 124.07427 
L 221.523356 124.645934 
L 221.523356 123.840833 
L 220.37168 124.272233 
L 220.37168 124.001813 
L 219.987787 124.14625 
L 219.987787 123.874882 
L 219.603895 124.01955 
L 219.603895 123.747226 
L 218.836111 124.037438 
L 218.836111 123.489718 
L 218.452218 123.635079 
L 218.452218 123.359852 
L 217.684434 123.651458 
L 217.684434 122.261439 
L 216.148865 122.845903 
L 216.148865 122.564684 
L 215.38108 122.859094 
L 215.38108 122.009275 
L 214.613296 122.30422 
L 214.613296 122.018866 
L 213.845511 122.315153 
L 213.845511 122.028542 
L 213.461619 122.177141 
L 213.461619 121.889468 
L 213.077727 122.038304 
L 213.077727 121.749562 
L 212.693835 121.898635 
L 212.693835 121.318125 
L 210.390481 122.219491 
L 210.390481 121.926636 
L 207.703236 122.997695 
L 207.703236 122.406261 
L 206.935451 122.715652 
L 206.935451 122.418125 
L 206.551559 122.573319 
L 206.551559 121.373039 
L 205.783774 121.68307 
L 205.783774 121.076367 
L 204.632098 121.543677 
L 204.632098 121.238188 
L 204.248206 121.394707 
L 204.248206 121.088014 
L 203.864313 121.244792 
L 203.864313 120.627998 
L 202.712637 121.099885 
L 202.712637 120.789279 
L 202.328744 120.947338 
L 202.328744 120.635488 
L 201.177068 121.111986 
L 201.177068 120.798384 
L 200.409283 121.118125 
L 200.409283 120.803003 
L 198.873714 121.447749 
L 198.873714 120.812378 
L 198.10593 121.136906 
L 198.10593 120.817135 
L 197.722037 120.979943 
L 197.722037 120.658853 
L 197.338145 120.821939 
L 197.338145 120.49952 
L 196.954253 120.662884 
L 196.954253 120.014285 
L 196.570361 120.177657 
L 196.570361 118.866273 
L 196.186469 119.029086 
L 196.186469 118.698193 
L 195.034792 119.189093 
L 195.034792 118.85622 
L 194.267007 119.185702 
L 194.267007 118.515385 
L 192.347546 119.346104 
L 192.347546 119.007744 
L 191.579762 119.343472 
L 191.579762 119.003342 
L 189.6603 119.851458 
L 189.6603 119.508635 
L 188.508624 120.023779 
L 188.508624 119.332664 
L 188.124732 119.504981 
L 188.124732 118.808321 
L 186.973055 119.327086 
L 186.973055 118.975935 
L 186.589163 119.14978 
L 186.589163 118.797044 
L 186.20527 118.971194 
L 186.20527 118.616859 
L 184.669701 119.318489 
L 184.669701 118.603317 
L 184.285809 118.779663 
L 184.285809 118.419776 
L 183.518025 118.773742 
L 183.518025 116.212155 
L 180.830779 117.454609 
L 180.830779 117.080625 
L 180.446887 117.26044 
L 180.446887 116.884665 
L 179.679102 117.245606 
L 179.679102 116.867647 
L 176.991857 118.150296 
L 176.991857 116.999606 
L 175.456288 117.743665 
L 175.456288 116.574647 
L 173.920719 117.325695 
L 173.920719 116.931299 
L 173.536826 117.120525 
L 173.536826 116.724137 
L 172.769042 117.10404 
L 172.769042 115.90274 
L 172.001258 116.283166 
L 172.001258 115.878614 
L 170.849581 116.453781 
L 170.849581 116.046256 
L 170.465689 116.239113 
L 170.465689 115.829465 
L 169.314012 116.411486 
L 169.314012 115.99879 
L 168.546227 116.389941 
L 168.546227 115.97461 
L 167.778443 116.368125 
L 167.778443 112.974108 
L 167.010658 113.363189 
L 167.010658 111.618125 
L 166.626766 111.811834 
L 166.626766 111.370299 
L 165.858982 111.759173 
L 165.858982 110.419663 
L 165.091197 110.808633 
L 165.091197 110.357063 
L 163.939521 110.945296 
L 163.939521 110.49 
L 161.636167 111.686903 
L 161.636167 110.763125 
L 160.868383 111.166983 
L 160.868383 110.700734 
L 160.48449 110.903446 
L 160.48449 109.489949 
L 160.100598 109.691736 
L 160.100598 109.215573 
L 159.332814 109.620689 
L 159.332814 108.659109 
L 158.948921 108.861787 
L 158.948921 108.376949 
L 157.797245 108.988741 
L 157.797245 107.018125 
L 157.02946 107.425337 
L 157.02946 106.422956 
L 154.726107 107.659792 
L 154.726107 107.150557 
L 154.342215 107.359504 
L 154.342215 106.847014 
L 153.57443 107.266512 
L 153.57443 106.749966 
L 152.806646 107.172125 
L 152.806646 104.00848 
L 152.422753 104.216344 
L 152.422753 103.678839 
L 152.038861 103.886923 
L 152.038861 102.80193 
L 151.654969 103.009362 
L 151.654969 102.461794 
L 150.887184 102.878125 
L 150.887184 102.325938 
L 150.1194 102.744827 
L 150.1194 101.065355 
L 148.967723 101.693657 
L 148.967723 101.125058 
L 145.128801 103.284152 
L 145.128801 102.118125 
L 144.744909 102.338567 
L 144.744909 101.749704 
L 144.361016 101.970347 
L 144.361016 101.377178 
L 143.593232 101.820086 
L 143.593232 100.619533 
L 143.20934 100.840724 
L 143.20934 99.624375 
L 140.905986 100.964946 
L 140.905986 99.721032 
L 139.75431 100.401996 
L 139.75431 99.136414 
L 138.602633 99.822292 
L 138.602633 98.534293 
L 136.299279 99.928491 
L 136.299279 99.27103 
L 135.915387 99.507082 
L 135.915387 98.844279 
L 134.76371 99.557255 
L 134.76371 98.886349 
L 133.228141 99.85251 
L 133.228141 99.171922 
L 132.844249 99.415903 
L 132.844249 98.72959 
L 132.076465 99.219407 
L 132.076465 97.125245 
L 131.692573 97.368125 
L 131.692573 95.94623 
L 131.30868 96.187633 
L 131.30868 95.468125 
L 129.773111 96.443458 
L 129.773111 94.236644 
L 129.389219 94.479611 
L 129.389219 92.98003 
L 126.701973 94.703491 
L 126.701973 93.158125 
L 125.934189 93.658761 
L 125.934189 92.083961 
L 125.166404 92.584075 
L 125.166404 91.784312 
L 124.39862 92.28769 
L 124.39862 91.478125 
L 124.014728 91.730534 
L 124.014728 90.912997 
L 122.863051 91.675162 
L 122.863051 90.845263 
L 122.095267 91.358574 
L 122.095267 88.818125 
L 120.175805 90.101909 
L 120.175805 89.230528 
L 119.791913 89.490888 
L 119.791913 87.722831 
L 118.640236 88.501458 
L 118.640236 86.690125 
L 118.256344 86.948647 
L 118.256344 86.029415 
L 116.336883 87.340347 
L 116.336883 84.495625 
L 115.952991 84.755782 
L 115.952991 83.788713 
L 114.417422 84.839493 
L 114.417422 81.851458 
L 112.114068 83.439014 
L 112.114068 80.310918 
L 110.578499 81.375006 
L 110.578499 80.29877 
L 107.891254 82.231458 
L 107.891254 79.994087 
L 106.739577 80.838125 
L 106.739577 79.690674 
L 105.971793 80.258719 
L 105.971793 79.091259 
L 103.284547 81.139774 
L 103.284547 79.928488 
L 102.516762 80.531738 
L 102.516762 79.298125 
L 101.365086 80.212243 
L 101.365086 78.950383 
L 100.981193 79.256503 
L 100.981193 77.975734 
L 99.829517 78.898235 
L 99.829517 77.587014 
L 97.910056 79.166125 
L 97.910056 77.811228 
L 96.374487 79.116949 
L 96.374487 77.721675 
L 95.990594 78.051458 
L 95.990594 76.633095 
L 95.22281 77.291458 
L 95.22281 74.375794 
L 94.838918 74.697137 
L 94.838918 73.205082 
L 94.455025 73.523125 
L 94.455025 72.004917 
L 94.071133 72.319391 
L 94.071133 70.774176 
L 93.303349 71.399415 
L 93.303349 69.818125 
L 90.232211 72.420865 
L 87.928857 74.568125 
L 87.928857 71.084792 
L 85.241612 73.690644 
L 85.241612 71.835048 
L 83.706043 73.407014 
L 83.706043 71.474925 
L 83.322151 71.871351 
L 83.322151 69.895361 
L 80.634905 72.766401 
L 78.331551 75.518125 
L 76.41209 78.051458 
L 76.41209 75.773894 
L 76.028198 76.292882 
L 76.028198 73.953419 
L 74.492629 76.060982 
L 74.492629 73.598537 
L 72.189276 76.979663 
L 70.269814 80.15766 
L 68.350353 83.728002 
L 66.430892 87.768125 
L 66.047 88.640792 
L 66.047 85.58299 
L 64.127539 90.1674 
L 62.59197 94.34274 
L 62.208077 95.468125 
L 62.208077 91.984792 
L 61.440293 94.268945 
L 61.440293 90.591458 
L 60.672508 92.945711 
L 60.672508 89.051458 
L 59.13694 94.087936 
L 57.601371 99.946696 
L 57.217478 101.563958 
L 57.217478 87.340347 
L 55.681909 93.683979 
L 54.530233 99.318125 
L 53.378556 105.918125 
L 52.226879 113.755625 
L 51.459095 119.851458 
L 51.459095 89.841202 
L 51.075203 92.542125 
L 51.075203 83.276458 
L 49.923526 91.984792 
L 49.923526 80.838125 
L 49.155741 87.340347 
L 48.387957 95.468125 
L 47.620172 105.918125 
L 46.852388 119.851458 
L 46.084603 139.358125 
L 45.316819 168.618125 
L 44.932927 189.518125 
L 44.549034 217.384792 
L 44.165142 256.398125 
L 43.78125 22.318125 
L 43.78125 22.318125 
" clip-path="url(#p98e10accf8)" style="fill: none; stroke: #0072b2; stroke-width: 1.5; stroke-linecap: square"/>
   </g>
   <g id="patch_3">
    <path d="M 43.78125 314.918125 
L 43.78125 22.318125 
" style="fill: none; stroke: #000000; stroke-width: 0.8; stroke-linejoin: miter; stroke-linecap: square"/>
   </g>
   <g id="patch_4">
    <path d="M 553.20625 314.918125 
L 553.20625 22.318125 
" style="fill: none; stroke: #000000; stroke-width: 0.8; stroke-linejoin: miter; stroke-linecap: square"/>
   </g>
   <g id="patch_5">
    <path d="M 43.78125 314.918125 
L 553.20625 314.918125 
" style="fill: none; stroke: #000000; stroke-width: 0.8; stroke-linejoin: miter; stroke-linecap: square"/>
   </g>
   <g id="patch_6">
    <path d="M 43.78125 22.318125 
L 553.20625 22.318125 
" style="fill: none; stroke: #000000; stroke-width: 0.8; stroke-linejoin: miter; stroke-linecap: square"/>
   </g>
   <g id="text_15">
    <!-- Saved scores on the previously inspected legacy test -->
    <g transform="translate(138.709062 16.318125) scale(0.12 -0.12)">
     <defs>
      <path id="DejaVuSans-53" d="M 3425 4513 
L 3425 3897 
Q 3066 4069 2747 4153 
Q 2428 4238 2131 4238 
Q 1616 4238 1336 4038 
Q 1056 3838 1056 3469 
Q 1056 3159 1242 3001 
Q 1428 2844 1947 2747 
L 2328 2669 
Q 3034 2534 3370 2195 
Q 3706 1856 3706 1288 
Q 3706 609 3251 259 
Q 2797 -91 1919 -91 
Q 1588 -91 1214 -16 
Q 841 59 441 206 
L 441 856 
Q 825 641 1194 531 
Q 1563 422 1919 422 
Q 2459 422 2753 634 
Q 3047 847 3047 1241 
Q 3047 1584 2836 1778 
Q 2625 1972 2144 2069 
L 1759 2144 
Q 1053 2284 737 2584 
Q 422 2884 422 3419 
Q 422 4038 858 4394 
Q 1294 4750 2059 4750 
Q 2388 4750 2728 4690 
Q 3069 4631 3425 4513 
z
" transform="scale(0.015625)"/>
      <path id="DejaVuSans-76" d="M 191 3500 
L 800 3500 
L 1894 563 
L 2988 3500 
L 3597 3500 
L 2284 0 
L 1503 0 
L 191 3500 
z
" transform="scale(0.015625)"/>
      <path id="DejaVuSans-64" d="M 2906 2969 
L 2906 4863 
L 3481 4863 
L 3481 0 
L 2906 0 
L 2906 525 
Q 2725 213 2448 61 
Q 2172 -91 1784 -91 
Q 1150 -91 751 415 
Q 353 922 353 1747 
Q 353 2572 751 3078 
Q 1150 3584 1784 3584 
Q 2172 3584 2448 3432 
Q 2725 3281 2906 2969 
z
M 947 1747 
Q 947 1113 1208 752 
Q 1469 391 1925 391 
Q 2381 391 2643 752 
Q 2906 1113 2906 1747 
Q 2906 2381 2643 2742 
Q 2381 3103 1925 3103 
Q 1469 3103 1208 2742 
Q 947 2381 947 1747 
z
" transform="scale(0.015625)"/>
      <path id="DejaVuSans-20" transform="scale(0.015625)"/>
      <path id="DejaVuSans-74" d="M 1172 4494 
L 1172 3500 
L 2356 3500 
L 2356 3053 
L 1172 3053 
L 1172 1153 
Q 1172 725 1289 603 
Q 1406 481 1766 481 
L 2356 481 
L 2356 0 
L 1766 0 
Q 1100 0 847 248 
Q 594 497 594 1153 
L 594 3053 
L 172 3053 
L 172 3500 
L 594 3500 
L 594 4494 
L 1172 4494 
z
" transform="scale(0.015625)"/>
      <path id="DejaVuSans-68" d="M 3513 2113 
L 3513 0 
L 2938 0 
L 2938 2094 
Q 2938 2591 2744 2837 
Q 2550 3084 2163 3084 
Q 1697 3084 1428 2787 
Q 1159 2491 1159 1978 
L 1159 0 
L 581 0 
L 581 4863 
L 1159 4863 
L 1159 2956 
Q 1366 3272 1645 3428 
Q 1925 3584 2291 3584 
Q 2894 3584 3203 3211 
Q 3513 2838 3513 2113 
z
" transform="scale(0.015625)"/>
      <path id="DejaVuSans-70" d="M 1159 525 
L 1159 -1331 
L 581 -1331 
L 581 3500 
L 1159 3500 
L 1159 2969 
Q 1341 3281 1617 3432 
Q 1894 3584 2278 3584 
Q 2916 3584 3314 3078 
Q 3713 2572 3713 1747 
Q 3713 922 3314 415 
Q 2916 -91 2278 -91 
Q 1894 -91 1617 61 
Q 1341 213 1159 525 
z
M 3116 1747 
Q 3116 2381 2855 2742 
Q 2594 3103 2138 3103 
Q 1681 3103 1420 2742 
Q 1159 2381 1159 1747 
Q 1159 1113 1420 752 
Q 1681 391 2138 391 
Q 2594 391 2855 752 
Q 3116 1113 3116 1747 
z
" transform="scale(0.015625)"/>
      <path id="DejaVuSans-75" d="M 544 1381 
L 544 3500 
L 1119 3500 
L 1119 1403 
Q 1119 906 1312 657 
Q 1506 409 1894 409 
Q 2359 409 2629 706 
Q 2900 1003 2900 1516 
L 2900 3500 
L 3475 3500 
L 3475 0 
L 2900 0 
L 2900 538 
Q 2691 219 2414 64 
Q 2138 -91 1772 -91 
Q 1169 -91 856 284 
Q 544 659 544 1381 
z
M 1991 3584 
L 1991 3584 
z
" transform="scale(0.015625)"/>
      <path id="DejaVuSans-79" d="M 2059 -325 
Q 1816 -950 1584 -1140 
Q 1353 -1331 966 -1331 
L 506 -1331 
L 506 -850 
L 844 -850 
Q 1081 -850 1212 -737 
Q 1344 -625 1503 -206 
L 1606 56 
L 191 3500 
L 800 3500 
L 1894 763 
L 2988 3500 
L 3597 3500 
L 2059 -325 
z
" transform="scale(0.015625)"/>
      <path id="DejaVuSans-67" d="M 2906 1791 
Q 2906 2416 2648 2759 
Q 2391 3103 1925 3103 
Q 1463 3103 1205 2759 
Q 947 2416 947 1791 
Q 947 1169 1205 825 
Q 1463 481 1925 481 
Q 2391 481 2648 825 
Q 2906 1169 2906 1791 
z
M 3481 434 
Q 3481 -459 3084 -895 
Q 2688 -1331 1869 -1331 
Q 1566 -1331 1297 -1286 
Q 1028 -1241 775 -1147 
L 775 -588 
Q 1028 -725 1275 -790 
Q 1522 -856 1778 -856 
Q 2344 -856 2625 -561 
Q 2906 -266 2906 331 
L 2906 616 
Q 2728 306 2450 153 
Q 2172 0 1784 0 
Q 1141 0 747 490 
Q 353 981 353 1791 
Q 353 2603 747 3093 
Q 1141 3584 1784 3584 
Q 2172 3584 2450 3431 
Q 2728 3278 2906 2969 
L 2906 3500 
L 3481 3500 
L 3481 434 
z
" transform="scale(0.015625)"/>
     </defs>
     <use xlink:href="#DejaVuSans-53"/>
     <use xlink:href="#DejaVuSans-61" x="63.476562"/>
     <use xlink:href="#DejaVuSans-76" x="124.755859"/>
     <use xlink:href="#DejaVuSans-65" x="183.935547"/>
     <use xlink:href="#DejaVuSans-64" x="245.458984"/>
     <use xlink:href="#DejaVuSans-20" x="308.935547"/>
     <use xlink:href="#DejaVuSans-73" x="340.722656"/>
     <use xlink:href="#DejaVuSans-63" x="392.822266"/>
     <use xlink:href="#DejaVuSans-6f" x="447.802734"/>
     <use xlink:href="#DejaVuSans-72" x="508.984375"/>
     <use xlink:href="#DejaVuSans-65" x="547.847656"/>
     <use xlink:href="#DejaVuSans-73" x="609.371094"/>
     <use xlink:href="#DejaVuSans-20" x="661.470703"/>
     <use xlink:href="#DejaVuSans-6f" x="693.257812"/>
     <use xlink:href="#DejaVuSans-6e" x="754.439453"/>
     <use xlink:href="#DejaVuSans-20" x="817.818359"/>
     <use xlink:href="#DejaVuSans-74" x="849.605469"/>
     <use xlink:href="#DejaVuSans-68" x="888.814453"/>
     <use xlink:href="#DejaVuSans-65" x="952.193359"/>
     <use xlink:href="#DejaVuSans-20" x="1013.716797"/>
     <use xlink:href="#DejaVuSans-70" x="1045.503906"/>
     <use xlink:href="#DejaVuSans-72" x="1108.980469"/>
     <use xlink:href="#DejaVuSans-65" x="1147.84375"/>
     <use xlink:href="#DejaVuSans-76" x="1209.367188"/>
     <use xlink:href="#DejaVuSans-69" x="1268.546875"/>
     <use xlink:href="#DejaVuSans-6f" x="1296.330078"/>
     <use xlink:href="#DejaVuSans-75" x="1357.511719"/>
     <use xlink:href="#DejaVuSans-73" x="1420.890625"/>
     <use xlink:href="#DejaVuSans-6c" x="1472.990234"/>
     <use xlink:href="#DejaVuSans-79" x="1500.773438"/>
     <use xlink:href="#DejaVuSans-20" x="1559.953125"/>
     <use xlink:href="#DejaVuSans-69" x="1591.740234"/>
     <use xlink:href="#DejaVuSans-6e" x="1619.523438"/>
     <use xlink:href="#DejaVuSans-73" x="1682.902344"/>
     <use xlink:href="#DejaVuSans-70" x="1735.001953"/>
     <use xlink:href="#DejaVuSans-65" x="1798.478516"/>
     <use xlink:href="#DejaVuSans-63" x="1860.001953"/>
     <use xlink:href="#DejaVuSans-74" x="1914.982422"/>
     <use xlink:href="#DejaVuSans-65" x="1954.191406"/>
     <use xlink:href="#DejaVuSans-64" x="2015.714844"/>
     <use xlink:href="#DejaVuSans-20" x="2079.191406"/>
     <use xlink:href="#DejaVuSans-6c" x="2110.978516"/>
     <use xlink:href="#DejaVuSans-65" x="2138.761719"/>
     <use xlink:href="#DejaVuSans-67" x="2200.285156"/>
     <use xlink:href="#DejaVuSans-61" x="2263.761719"/>
     <use xlink:href="#DejaVuSans-63" x="2325.041016"/>
     <use xlink:href="#DejaVuSans-79" x="2380.021484"/>
     <use xlink:href="#DejaVuSans-20" x="2439.201172"/>
     <use xlink:href="#DejaVuSans-74" x="2470.988281"/>
     <use xlink:href="#DejaVuSans-65" x="2510.197266"/>
     <use xlink:href="#DejaVuSans-73" x="2571.720703"/>
     <use xlink:href="#DejaVuSans-74" x="2623.820312"/>
    </g>
   </g>
   <g id="legend_1">
    <g id="patch_7">
     <path d="M 408.557812 59.674375 
L 546.20625 59.674375 
Q 548.20625 59.674375 548.20625 57.674375 
L 548.20625 29.318125 
Q 548.20625 27.318125 546.20625 27.318125 
L 408.557812 27.318125 
Q 406.557812 27.318125 406.557812 29.318125 
L 406.557812 57.674375 
Q 406.557812 59.674375 408.557812 59.674375 
z
" style="fill: #ffffff; opacity: 0.8; stroke: #cccccc; stroke-linejoin: miter"/>
    </g>
    <g id="line2d_27">
     <path d="M 410.557812 35.416562 
L 420.557812 35.416562 
L 430.557812 35.416562 
" style="fill: none; stroke: #777777; stroke-width: 1.5; stroke-linecap: square"/>
    </g>
    <g id="text_16">
     <!-- Python V5.1 baseline -->
     <g transform="translate(438.557812 38.916562) scale(0.1 -0.1)">
      <defs>
       <path id="DejaVuSans-56" d="M 1831 0 
L 50 4666 
L 709 4666 
L 2188 738 
L 3669 4666 
L 4325 4666 
L 2547 0 
L 1831 0 
z
" transform="scale(0.015625)"/>
       <path id="DejaVuSans-35" d="M 691 4666 
L 3169 4666 
L 3169 4134 
L 1269 4134 
L 1269 2991 
Q 1406 3038 1543 3061 
Q 1681 3084 1819 3084 
Q 2600 3084 3056 2656 
Q 3513 2228 3513 1497 
Q 3513 744 3044 326 
Q 2575 -91 1722 -91 
Q 1428 -91 1123 -41 
Q 819 9 494 109 
L 494 744 
Q 775 591 1075 516 
Q 1375 441 1709 441 
Q 2250 441 2565 725 
Q 2881 1009 2881 1497 
Q 2881 1984 2565 2268 
Q 2250 2553 1709 2553 
Q 1456 2553 1204 2497 
Q 953 2441 691 2322 
L 691 4666 
z
" transform="scale(0.015625)"/>
       <path id="DejaVuSans-62" d="M 3116 1747 
Q 3116 2381 2855 2742 
Q 2594 3103 2138 3103 
Q 1681 3103 1420 2742 
Q 1159 2381 1159 1747 
Q 1159 1113 1420 752 
Q 1681 391 2138 391 
Q 2594 391 2855 752 
Q 3116 1113 3116 1747 
z
M 1159 2969 
Q 1341 3281 1617 3432 
Q 1894 3584 2278 3584 
Q 2916 3584 3314 3078 
Q 3713 2572 3713 1747 
Q 3713 922 3314 415 
Q 2916 -91 2278 -91 
Q 1894 -91 1617 61 
Q 1341 213 1159 525 
L 1159 0 
L 581 0 
L 581 4863 
L 1159 4863 
L 1159 2969 
z
" transform="scale(0.015625)"/>
      </defs>
      <use xlink:href="#DejaVuSans-50"/>
      <use xlink:href="#DejaVuSans-79" x="60.302734"/>
      <use xlink:href="#DejaVuSans-74" x="119.482422"/>
      <use xlink:href="#DejaVuSans-68" x="158.691406"/>
      <use xlink:href="#DejaVuSans-6f" x="222.070312"/>
      <use xlink:href="#DejaVuSans-6e" x="283.251953"/>
      <use xlink:href="#DejaVuSans-20" x="346.630859"/>
      <use xlink:href="#DejaVuSans-56" x="378.417969"/>
      <use xlink:href="#DejaVuSans-35" x="446.826172"/>
      <use xlink:href="#DejaVuSans-2e" x="510.449219"/>
      <use xlink:href="#DejaVuSans-31" x="542.236328"/>
      <use xlink:href="#DejaVuSans-20" x="605.859375"/>
      <use xlink:href="#DejaVuSans-62" x="637.646484"/>
      <use xlink:href="#DejaVuSans-61" x="701.123047"/>
      <use xlink:href="#DejaVuSans-73" x="762.402344"/>
      <use xlink:href="#DejaVuSans-65" x="814.501953"/>
      <use xlink:href="#DejaVuSans-6c" x="876.025391"/>
      <use xlink:href="#DejaVuSans-69" x="903.808594"/>
      <use xlink:href="#DejaVuSans-6e" x="931.591797"/>
      <use xlink:href="#DejaVuSans-65" x="994.970703"/>
     </g>
    </g>
    <g id="line2d_28">
     <path d="M 410.557812 50.094687 
L 420.557812 50.094687 
L 430.557812 50.094687 
" style="fill: none; stroke: #0072b2; stroke-width: 1.5; stroke-linecap: square"/>
    </g>
    <g id="text_17">
     <!-- Custom Python -->
     <g transform="translate(438.557812 53.594687) scale(0.1 -0.1)">
      <defs>
       <path id="DejaVuSans-43" d="M 4122 4306 
L 4122 3641 
Q 3803 3938 3442 4084 
Q 3081 4231 2675 4231 
Q 1875 4231 1450 3742 
Q 1025 3253 1025 2328 
Q 1025 1406 1450 917 
Q 1875 428 2675 428 
Q 3081 428 3442 575 
Q 3803 722 4122 1019 
L 4122 359 
Q 3791 134 3420 21 
Q 3050 -91 2638 -91 
Q 1578 -91 968 557 
Q 359 1206 359 2328 
Q 359 3453 968 4101 
Q 1578 4750 2638 4750 
Q 3056 4750 3426 4639 
Q 3797 4528 4122 4306 
z
" transform="scale(0.015625)"/>
       <path id="DejaVuSans-6d" d="M 3328 2828 
Q 3544 3216 3844 3400 
Q 4144 3584 4550 3584 
Q 5097 3584 5394 3201 
Q 5691 2819 5691 2113 
L 5691 0 
L 5113 0 
L 5113 2094 
Q 5113 2597 4934 2840 
Q 4756 3084 4391 3084 
Q 3944 3084 3684 2787 
Q 3425 2491 3425 1978 
L 3425 0 
L 2847 0 
L 2847 2094 
Q 2847 2600 2669 2842 
Q 2491 3084 2119 3084 
Q 1678 3084 1418 2786 
Q 1159 2488 1159 1978 
L 1159 0 
L 581 0 
L 581 3500 
L 1159 3500 
L 1159 2956 
Q 1356 3278 1631 3431 
Q 1906 3584 2284 3584 
Q 2666 3584 2933 3390 
Q 3200 3197 3328 2828 
z
" transform="scale(0.015625)"/>
      </defs>
      <use xlink:href="#DejaVuSans-43"/>
      <use xlink:href="#DejaVuSans-75" x="69.824219"/>
      <use xlink:href="#DejaVuSans-73" x="133.203125"/>
      <use xlink:href="#DejaVuSans-74" x="185.302734"/>
      <use xlink:href="#DejaVuSans-6f" x="224.511719"/>
      <use xlink:href="#DejaVuSans-6d" x="285.693359"/>
      <use xlink:href="#DejaVuSans-20" x="383.105469"/>
      <use xlink:href="#DejaVuSans-50" x="414.892578"/>
      <use xlink:href="#DejaVuSans-79" x="475.195312"/>
      <use xlink:href="#DejaVuSans-74" x="534.375"/>
      <use xlink:href="#DejaVuSans-68" x="573.583984"/>
      <use xlink:href="#DejaVuSans-6f" x="636.962891"/>
      <use xlink:href="#DejaVuSans-6e" x="698.144531"/>
     </g>
    </g>
   </g>
  </g>
 </g>
 <defs>
  <clipPath id="p98e10accf8">
   <rect x="43.78125" y="22.318125" width="509.425" height="292.6"/>
  </clipPath>
 </defs>
</svg>
